<svg width="19" height="19" viewBox="0 0 19 19" fill="none" xmlns="http://www.w3.org/2000/svg">
<g clip-path="url(#clip0_2_12552)">
<path d="M17.2752 13.3267V15.66C17.2761 15.8766 17.2317 16.091 17.1449 16.2895C17.0581 16.488 16.9309 16.6661 16.7712 16.8126C16.6116 16.959 16.4232 17.0705 16.218 17.1399C16.0128 17.2093 15.7954 17.2351 15.5796 17.2156C13.1863 16.9555 10.8873 16.1377 8.8674 14.8278C6.98815 13.6336 5.39488 12.0404 4.20073 10.1611C2.88627 8.13205 2.06825 5.82189 1.81295 3.41778C1.79352 3.2027 1.81908 2.98593 1.88801 2.78127C1.95694 2.57661 2.06773 2.38854 2.21333 2.22904C2.35892 2.06955 2.53614 1.94211 2.73368 1.85486C2.93122 1.7676 3.14477 1.72243 3.36073 1.72223H5.69407C6.07153 1.71851 6.43746 1.85218 6.72366 2.09831C7.00986 2.34444 7.19679 2.68624 7.24962 3.06001C7.34811 3.80672 7.53075 4.5399 7.79407 5.24556C7.89871 5.52395 7.92136 5.8265 7.85933 6.11736C7.79729 6.40822 7.65318 6.6752 7.44407 6.88667L6.45629 7.87445C7.5635 9.82165 9.17575 11.4339 11.123 12.5411L12.1107 11.5533C12.3222 11.3442 12.5892 11.2001 12.88 11.1381C13.1709 11.076 13.4735 11.0987 13.7518 11.2033C14.4575 11.4667 15.1907 11.6493 15.9374 11.7478C16.3152 11.8011 16.6603 11.9914 16.9069 12.2825C17.1536 12.5736 17.2846 12.9452 17.2752 13.3267Z" stroke="white" stroke-width="2" stroke-linecap="round" stroke-linejoin="round"/>
</g>
<defs>
<clipPath id="clip0_2_12552">
<rect width="18.6667" height="18.6667" fill="white" transform="translate(0.164062 0.166672)"/>
</clipPath>
</defs>
</svg>
